<svg xmlns="http://www.w3.org/2000/svg" viewBox="0 0 255.85 179.13"><defs><style>.cls-1{fill:#fff;}</style></defs><g id="Layer_2" data-name="Layer 2"><g id="Layer_1-2" data-name="Layer 1"><path class="cls-1" d="M255.78,52.59c.46,3.81-1.49,5.36-4.48,6.65-6.9,3-13.63,6.35-20.46,9.49a2.34,2.34,0,0,0-1.64,2.5c.07,8.87,0,17.73.08,26.59a3.25,3.25,0,0,0,1.13,2.2,8.25,8.25,0,0,1,3.5,6.77c0,2.38,0,4.76,0,7.14a10.57,10.57,0,0,1-2.23,7c-.81,1.08-.58,2.88-1,4.32-.48,1.73.32,2.71,1.53,3.84,5.43,5.09,7.43,11.68,8,18.86.7,8.42-1.63,16.36-3.76,24.33a34,34,0,0,1-1.78,5.45q.9-9.75,1.79-19.49c-1.83,6.54-5.57,12.57-5.45,19.72q-1.12-8.1-2.26-16.18l-.67,0V174l-.57.06-.66-2.37c-.27,1.36-.5,2.49-.72,3.61h-.27q-.31-6.81-.61-13.6l-.38,0c-.22,1.35-.48,2.69-.66,4a42.87,42.87,0,0,0-.49,4.51c0,1.43.14,2.86.24,4.72L223,173.39c-.37,2.06-.71,3.9-1,5.74.09-7.42-.26-14.72-3.44-21.88l1.55,19.22-.32.05c-.92-4-1.83-8-2.78-12-2.1-8.87-2.67-17.75-.11-26.64a25.39,25.39,0,0,1,5.12-9.52,7.38,7.38,0,0,0,1.26-2.54c.64-2,.15-3.42-1.6-5a8.75,8.75,0,0,1-2.34-5.19,68.79,68.79,0,0,1-.1-9.31,7.55,7.55,0,0,1,3.32-6.22c.51-.38,1.13-1,1.13-1.59.07-8.66.05-17.32.05-26.28-.83.34-1.47.58-2.08.87q-46,21.56-91.89,43.16a4.37,4.37,0,0,1-4.21,0Q63.63,86.7,1.69,57.24C.15,56.51.07,55.54,0,54.15S.66,52.4,1.72,52Q64.35,26.1,127,.24a4.76,4.76,0,0,1,3.3.12q62.22,25.8,124.41,51.72C255.12,52.26,255.52,52.46,255.78,52.59Z"/><path class="cls-1" d="M50.86,88.42,76.52,99.84q24.32,10.84,48.61,21.72a3.59,3.59,0,0,0,3.15,0q38.86-16,77.77-31.95c.85-.35,1.7-.68,2.86-1.14,0,1,0,1.71,0,2.46q-.41,26.39-.79,52.78a2.62,2.62,0,0,1-1.64,2.58,176.75,176.75,0,0,1-50,18.11,145.8,145.8,0,0,1-40,2.71,125.9,125.9,0,0,1-64.84-23.63A5.36,5.36,0,0,1,49,138.1c.51-9.38.76-18.77,1.09-28.15C50.37,102.88,50.6,95.81,50.86,88.42Z"/></g></g></svg>